HIERARCHY
ROOT Hips
{
  OFFSET 0.0 0.0 0.0
  CHANNELS 3 Xposition Yposition Zposition
  JOINT LHipJoint
  {
    OFFSET -0.13 0 0.0
    CHANNELS 3 Zrotation Xrotation Yrotation
    JOINT LLeg
    {
      OFFSET 0 -0.4 0.0
      CHANNELS 3 Zrotation Xrotation Yrotation
      JOINT LFoot
      {
        OFFSET 0 -0.4 0.0
        CHANNELS 3 Zrotation Xrotation Yrotation
        End Site
        {
          OFFSET 0.0 0.0 0.0
        }
      }
    }
  }
  JOINT RHipJoint
  {
    OFFSET 0.13 0 0.0
    CHANNELS 3 Zrotation Xrotation Yrotation
    JOINT RLeg
    {
      OFFSET 0 -0.4 0.0
      CHANNELS 3 Zrotation Xrotation Yrotation
      JOINT RFoot
      {
        OFFSET 0 -0.4 0.0
        CHANNELS 3 Zrotation Xrotation Yrotation
        End Site
        {
          OFFSET 0.0 0.0 0.0
        }
      }
    }
  }
  JOINT Chest
  {
    OFFSET 0 0.6 0.0
    CHANNELS 3 Zrotation Xrotation Yrotation
    JOINT Neck
    {
      OFFSET 0 0.1 0.0
      CHANNELS 3 Zrotation Xrotation Yrotation
      JOINT Head
      {
        OFFSET 0 0.1 0.0
        CHANNELS 3 Zrotation Xrotation Yrotation
        End Site
        {
          OFFSET 0.0 0.0 0.0
        }
      }
    }
    JOINT LShoulder
    {
      OFFSET -0.2 0 0.0
      CHANNELS 3 Zrotation Xrotation Yrotation
      JOINT LArm
      {
        OFFSET 0 -0.24 0.0
        CHANNELS 3 Zrotation Xrotation Yrotation
        JOINT LWrist
        {
          OFFSET 0 -0.23 0.0
          CHANNELS 3 Zrotation Xrotation Yrotation
          End Site
          {
            OFFSET 0.0 0.0 0.0
          }
        }
      }
    }
    JOINT RShoulder
    {
      OFFSET 0.2 0 0.0
      CHANNELS 3 Zrotation Xrotation Yrotation
      JOINT RArm
      {
        OFFSET 0 -0.24 0.0
        CHANNELS 3 Zrotation Xrotation Yrotation
        JOINT RWrist
        {
          OFFSET 0 -0.23 0.0
          CHANNELS 3 Zrotation Xrotation Yrotation
          End Site
          {
            OFFSET 0.0 0.0 0.0
          }
        }
      }
    }
  }
}
MOTION
Frames: 35
Frame Time: 0.03333333333333333
1.505 1.43 0.0 -69.62525544051282 0.0 0.0 103.84965530367268 0.0 0.0 0.0 0.0 0.0 84.01623303316192 0.0 0.0 -110.41087858037774 0.0 0.0 0.0 0.0 0.0 0.0 0.0 0.0 0.0 0.0 0.0 0.0 0.0 0.0 2.18348050368426 0.0 0.0 -97.12845016110715 0.0 0.0 0.0 0.0 0.0 -9.25599811905526 0.0 0.0 124.1661193452905 0.0 0.0 0.0 0.0 0.0
1.505 1.43 0.0 -69.62525544051282 0.0 0.0 103.84965530367268 0.0 0.0 0.0 0.0 0.0 84.01623303316192 0.0 0.0 -110.41087858037774 0.0 0.0 0.0 0.0 0.0 0.0 0.0 0.0 0.0 0.0 0.0 0.0 0.0 0.0 2.18348050368426 0.0 0.0 -97.12845016110715 0.0 0.0 0.0 0.0 0.0 -9.25599811905526 0.0 0.0 124.1661193452905 0.0 0.0 0.0 0.0 0.0
1.505 1.43 0.0 -69.62525544051282 0.0 0.0 103.84965530367268 0.0 0.0 0.0 0.0 0.0 84.01623303316192 0.0 0.0 -110.41087858037774 0.0 0.0 0.0 0.0 0.0 0.0 0.0 0.0 0.0 0.0 0.0 0.0 0.0 0.0 2.18348050368426 0.0 0.0 -97.12845016110715 0.0 0.0 0.0 0.0 0.0 -9.25599811905526 0.0 0.0 124.1661193452905 0.0 0.0 0.0 0.0 0.0
1.505 1.43 0.0 -69.62525544051282 0.0 0.0 103.84965530367268 0.0 0.0 0.0 0.0 0.0 84.01623303316192 0.0 0.0 -110.41087858037774 0.0 0.0 0.0 0.0 0.0 0.0 0.0 0.0 0.0 0.0 0.0 0.0 0.0 0.0 2.18348050368426 0.0 0.0 -97.12845016110715 0.0 0.0 0.0 0.0 0.0 -9.25599811905526 0.0 0.0 124.1661193452905 0.0 0.0 0.0 0.0 0.0
1.505 1.43 0.0 -69.62525544051282 0.0 0.0 103.84965530367268 0.0 0.0 0.0 0.0 0.0 84.01623303316192 0.0 0.0 -110.41087858037774 0.0 0.0 0.0 0.0 0.0 0.0 0.0 0.0 0.0 0.0 0.0 0.0 0.0 0.0 2.18348050368426 0.0 0.0 -97.12845016110715 0.0 0.0 0.0 0.0 0.0 -9.25599811905526 0.0 0.0 124.1661193452905 0.0 0.0 0.0 0.0 0.0
1.505 1.43 0.0 -69.62525544051282 0.0 0.0 103.84965530367268 0.0 0.0 0.0 0.0 0.0 84.01623303316192 0.0 0.0 -110.41087858037774 0.0 0.0 0.0 0.0 0.0 0.0 0.0 0.0 0.0 0.0 0.0 0.0 0.0 0.0 2.18348050368426 0.0 0.0 -97.12845016110715 0.0 0.0 0.0 0.0 0.0 -9.25599811905526 0.0 0.0 124.1661193452905 0.0 0.0 0.0 0.0 0.0
1.505 1.43 0.0 -69.62525544051282 0.0 0.0 103.84965530367268 0.0 0.0 0.0 0.0 0.0 84.01623303316192 0.0 0.0 -110.41087858037774 0.0 0.0 0.0 0.0 0.0 0.0 0.0 0.0 0.0 0.0 0.0 0.0 0.0 0.0 2.18348050368426 0.0 0.0 -97.12845016110715 0.0 0.0 0.0 0.0 0.0 -9.25599811905526 0.0 0.0 124.1661193452905 0.0 0.0 0.0 0.0 0.0
1.505 1.43 0.0 -69.62525544051282 0.0 0.0 103.84965530367268 0.0 0.0 0.0 0.0 0.0 84.01623303316192 0.0 0.0 -110.41087858037774 0.0 0.0 0.0 0.0 0.0 0.0 0.0 0.0 0.0 0.0 0.0 0.0 0.0 0.0 2.18348050368426 0.0 0.0 -97.12845016110715 0.0 0.0 0.0 0.0 0.0 -9.25599811905526 0.0 0.0 124.1661193452905 0.0 0.0 0.0 0.0 0.0
1.505 1.43 0.0 -69.62525544051282 0.0 0.0 103.84965530367268 0.0 0.0 0.0 0.0 0.0 84.01623303316192 0.0 0.0 -110.41087858037774 0.0 0.0 0.0 0.0 0.0 0.0 0.0 0.0 0.0 0.0 0.0 0.0 0.0 0.0 2.18348050368426 0.0 0.0 -97.12845016110715 0.0 0.0 0.0 0.0 0.0 -9.25599811905526 0.0 0.0 124.1661193452905 0.0 0.0 0.0 0.0 0.0
1.505 1.43 0.0 -69.62525544051282 0.0 0.0 103.84965530367268 0.0 0.0 0.0 0.0 0.0 84.01623303316192 0.0 0.0 -110.41087858037774 0.0 0.0 0.0 0.0 0.0 0.0 0.0 0.0 0.0 0.0 0.0 0.0 0.0 0.0 2.18348050368426 0.0 0.0 -97.12845016110715 0.0 0.0 0.0 0.0 0.0 -9.25599811905526 0.0 0.0 124.1661193452905 0.0 0.0 0.0 0.0 0.0
1.505 1.43 0.0 -69.62525544051282 0.0 0.0 103.84965530367268 0.0 0.0 0.0 0.0 0.0 84.01623303316192 0.0 0.0 -110.41087858037774 0.0 0.0 0.0 0.0 0.0 0.0 0.0 0.0 0.0 0.0 0.0 0.0 0.0 0.0 2.18348050368426 0.0 0.0 -97.12845016110715 0.0 0.0 0.0 0.0 0.0 -9.25599811905526 0.0 0.0 124.1661193452905 0.0 0.0 0.0 0.0 0.0
1.505 1.43 0.0 -69.62525544051282 0.0 0.0 103.84965530367268 0.0 0.0 0.0 0.0 0.0 84.01623303316192 0.0 0.0 -110.41087858037774 0.0 0.0 0.0 0.0 0.0 0.0 0.0 0.0 0.0 0.0 0.0 0.0 0.0 0.0 2.18348050368426 0.0 0.0 -97.12845016110715 0.0 0.0 0.0 0.0 0.0 -9.25599811905526 0.0 0.0 124.1661193452905 0.0 0.0 0.0 0.0 0.0
1.51 1.41 0.0 -72.49812595012472 0.0 0.0 106.98428350815585 0.0 0.0 0.0 0.0 0.0 86.42426123079532 0.0 0.0 -113.84707321459237 0.0 0.0 0.0 0.0 0.0 0.0 0.0 0.0 0.0 0.0 0.0 0.0 0.0 0.0 0.35711169425889105 0.0 0.0 -100.37134261252596 0.0 0.0 0.0 0.0 0.0 -7.795618797934428 0.0 0.0 128.59913175051207 0.0 0.0 0.0 0.0 0.0
1.51 1.41 0.0 -72.49812595012472 0.0 0.0 106.98428350815585 0.0 0.0 0.0 0.0 0.0 86.42426123079532 0.0 0.0 -113.84707321459237 0.0 0.0 0.0 0.0 0.0 0.0 0.0 0.0 0.0 0.0 0.0 0.0 0.0 0.0 0.35711169425889105 0.0 0.0 -100.37134261252596 0.0 0.0 0.0 0.0 0.0 -7.795618797934428 0.0 0.0 128.59913175051207 0.0 0.0 0.0 0.0 0.0
1.505 1.42 0.0 -70.84612700313784 0.0 0.0 105.571310133858 0.0 0.0 0.0 0.0 0.0 85.39134324047397 0.0 0.0 -111.92777367456853 0.0 0.0 0.0 0.0 0.0 0.0 0.0 0.0 0.0 0.0 0.0 0.0 0.0 0.0 1.922830759048575 0.0 0.0 -99.38359495922528 0.0 0.0 0.0 0.0 0.0 -7.959145670393148 0.0 0.0 125.87725362032947 0.0 0.0 0.0 0.0 0.0
1.49 1.45 0.0 -65.95962615407574 0.0 0.0 101.11240238319495 0.0 0.0 0.0 0.0 0.0 82.24398315987271 0.0 0.0 -106.03186243345515 0.0 0.0 0.0 0.0 0.0 0.0 0.0 0.0 0.0 0.0 0.0 0.0 0.0 0.0 5.978267777153507 0.0 0.0 -95.65311326149964 0.0 0.0 0.0 0.0 0.0 -7.515913622429411 0.0 0.0 117.32341595493737 0.0 0.0 0.0 0.0 0.0
1.48 1.485 0.0 -60.96980685863867 0.0 0.0 95.1546182097596 0.0 0.0 0.0 0.0 0.0 78.06298885782435 0.0 0.0 -99.52446618363598 0.0 0.0 0.0 0.0 0.0 0.0 0.0 0.0 0.0 0.0 0.0 0.0 0.0 0.0 7.657793354726018 0.0 0.0 -88.36498004441135 0.0 0.0 0.0 0.0 0.0 -7.408277917776276 0.0 0.0 108.1826417188359 0.0 0.0 0.0 0.0 0.0
1.47 1.505 0.0 -57.78814757208714 0.0 0.0 91.74600100162974 0.0 0.0 0.0 0.0 0.0 75.86002280335902 0.0 0.0 -95.26249324397891 0.0 0.0 0.0 0.0 0.0 0.0 0.0 0.0 0.0 0.0 0.0 0.0 0.0 0.0 9.007973017501753 0.0 0.0 -84.4120730713505 0.0 0.0 0.0 0.0 0.0 -5.682343004044933 0.0 0.0 101.62702002372623 0.0 0.0 0.0 0.0 0.0
1.46 1.51 0.0 -56.38794264777799 0.0 0.0 91.15942341490246 0.0 0.0 0.0 0.0 0.0 75.63795877052723 0.0 0.0 -93.47120346865093 0.0 0.0 0.0 0.0 0.0 0.0 0.0 0.0 0.0 0.0 0.0 0.0 0.0 0.0 11.000708186842878 0.0 0.0 -84.73789764111267 0.0 0.0 0.0 0.0 0.0 -3.3835915958178697 0.0 0.0 98.26752331801909 0.0 0.0 0.0 0.0 0.0
1.45 1.51 0.0 -55.55865884950334 0.0 0.0 91.51762036125785 0.0 0.0 0.0 0.0 0.0 76.06061930091849 0.0 0.0 -92.50301018842406 0.0 0.0 0.0 0.0 0.0 0.0 0.0 0.0 0.0 0.0 0.0 0.0 0.0 0.0 13.29626611751229 0.0 0.0 -86.50767383736971 0.0 0.0 0.0 0.0 0.0 -0.9864640472564675 0.0 0.0 95.96611139426292 0.0 0.0 0.0 0.0 0.0
1.435 1.48 0.0 -57.625472206869766 0.0 0.0 97.7586198886152 0.0 0.0 0.0 0.0 0.0 80.79511069308077 0.0 0.0 -95.9911588409234 0.0 0.0 0.0 0.0 0.0 0.0 0.0 0.0 0.0 0.0 0.0 0.0 0.0 0.0 18.47737677563212 0.0 0.0 -97.86129304149841 0.0 0.0 0.0 0.0 0.0 3.6768776293115577 0.0 0.0 98.75292907688352 0.0 0.0 0.0 0.0 0.0
1.425 1.44 0.0 -60.97133738451187 0.0 0.0 105.34838482933496 0.0 0.0 0.0 0.0 0.0 86.76993786995219 0.0 0.0 -101.15346112877552 0.0 0.0 0.0 0.0 0.0 0.0 0.0 0.0 0.0 0.0 0.0 0.0 0.0 0.0 21.9931098635997 0.0 0.0 -110.13314533232847 0.0 0.0 0.0 0.0 0.0 8.90087654745259 0.0 0.0 103.35467288547135 0.0 0.0 0.0 0.0 0.0
1.425 1.41 0.0 -64.14283528505696 0.0 0.0 110.60204144971404 0.0 0.0 0.0 0.0 0.0 91.04794133532103 0.0 0.0 -105.51555628615664 0.0 0.0 0.0 0.0 0.0 0.0 0.0 0.0 0.0 0.0 0.0 0.0 0.0 0.0 21.729098250192774 0.0 0.0 -117.4549296485033 0.0 0.0 0.0 0.0 0.0 12.168321661158615 0.0 0.0 107.71893187340677 0.0 0.0 0.0 0.0 0.0
1.42 1.4 0.0 -64.6258859531158 0.0 0.0 112.44502972509325 0.0 0.0 0.0 0.0 0.0 92.67399694798607 0.0 0.0 -106.34881683637684 0.0 0.0 0.0 0.0 0.0 0.0 0.0 0.0 0.0 0.0 0.0 0.0 0.0 0.0 22.762575535894044 0.0 0.0 -120.58602929366725 0.0 0.0 0.0 0.0 0.0 14.532819258374575 0.0 0.0 107.59638696799037 0.0 0.0 0.0 0.0 0.0
1.42 1.4 0.0 -64.6258859531158 0.0 0.0 112.44502972509325 0.0 0.0 0.0 0.0 0.0 92.67399694798607 0.0 0.0 -106.34881683637684 0.0 0.0 0.0 0.0 0.0 0.0 0.0 0.0 0.0 0.0 0.0 0.0 0.0 0.0 22.762575535894044 0.0 0.0 -120.58602929366725 0.0 0.0 0.0 0.0 0.0 14.532819258374575 0.0 0.0 107.59638696799037 0.0 0.0 0.0 0.0 0.0
1.41 1.445 0.0 -58.87050126390333 0.0 0.0 104.80136255744621 0.0 0.0 0.0 0.0 0.0 86.56308401029717 0.0 0.0 -98.72654378895855 0.0 0.0 0.0 0.0 0.0 0.0 0.0 0.0 0.0 0.0 0.0 0.0 0.0 0.0 25.74001665522296 0.0 0.0 -111.04791482003465 0.0 0.0 0.0 0.0 0.0 11.857883698523972 0.0 0.0 98.46423541328551 0.0 0.0 0.0 0.0 0.0
1.4 1.475 0.0 -54.73782284164357 0.0 0.0 99.48815771162782 0.0 0.0 0.0 0.0 0.0 82.60640696403865 0.0 0.0 -92.92873145533491 0.0 0.0 0.0 0.0 0.0 0.0 0.0 0.0 0.0 0.0 0.0 0.0 0.0 0.0 27.06734891993513 0.0 0.0 -104.18290432655304 0.0 0.0 0.0 0.0 0.0 12.12760260690191 0.0 0.0 90.33734123055046 0.0 0.0 0.0 0.0 0.0
1.39 1.485 0.0 -52.68886723852165 0.0 0.0 97.74958480845082 0.0 0.0 0.0 0.0 0.0 81.43001213801507 0.0 0.0 -90.1342871061727 0.0 0.0 0.0 0.0 0.0 0.0 0.0 0.0 0.0 0.0 0.0 0.0 0.0 0.0 28.82237952027346 0.0 0.0 -102.47611522978096 0.0 0.0 0.0 0.0 0.0 14.018429103837677 0.0 0.0 85.45412647791741 0.0 0.0 0.0 0.0 0.0
1.375 1.45 0.0 -54.52984122606693 0.0 0.0 104.38507073387434 0.0 0.0 0.0 0.0 0.0 86.69591280435364 0.0 0.0 -93.78068342417848 0.0 0.0 0.0 0.0 0.0 0.0 0.0 0.0 0.0 0.0 0.0 0.0 0.0 0.0 34.54009208857951 0.0 0.0 -113.94108726629977 0.0 0.0 0.0 0.0 0.0 19.415218641810775 0.0 0.0 87.35224179231099 0.0 0.0 0.0 0.0 0.0
1.365 1.375 0.0 -60.12182060262623 0.0 0.0 117.48293305834986 0.0 0.0 0.0 0.0 0.0 97.66290219564031 0.0 0.0 -102.88805392102084 0.0 0.0 0.0 0.0 0.0 0.0 0.0 0.0 0.0 0.0 0.0 0.0 0.0 0.0 38.32153133676367 0.0 0.0 -134.13341747403484 0.0 0.0 0.0 0.0 0.0 29.104362654187483 0.0 0.0 93.72633305928476 0.0 0.0 0.0 0.0 0.0
1.365 1.335 0.0 -63.56352938441307 0.0 0.0 124.07200788438462 0.0 0.0 0.0 0.0 0.0 103.58592143509453 0.0 0.0 -107.71586723250866 0.0 0.0 0.0 0.0 0.0 0.0 0.0 0.0 0.0 0.0 0.0 0.0 0.0 0.0 35.34644847581371 0.0 0.0 -143.26438302074584 0.0 0.0 0.0 0.0 0.0 34.88663535620135 0.0 0.0 96.43594685804622 0.0 0.0 0.0 0.0 0.0
1.37 1.325 0.0 -65.18310724384135 0.0 0.0 125.6596207554489 0.0 0.0 0.0 0.0 0.0 105.03641473018165 0.0 0.0 -109.52503754566435 0.0 0.0 0.0 0.0 0.0 0.0 0.0 0.0 0.0 0.0 0.0 0.0 0.0 0.0 32.03727802337502 0.0 0.0 -144.65369263995856 0.0 0.0 0.0 0.0 0.0 35.63519977778227 0.0 0.0 98.46423541328207 0.0 0.0 0.0 0.0 0.0
1.37 1.32 0.0 -65.61720609509594 0.0 0.0 126.46252412939667 0.0 0.0 0.0 0.0 0.0 105.79540435589637 0.0 0.0 -110.08167804959312 0.0 0.0 0.0 0.0 0.0 0.0 0.0 0.0 0.0 0.0 0.0 0.0 0.0 0.0 31.202513559573394 0.0 0.0 -145.6758307622844 0.0 0.0 0.0 0.0 0.0 36.48288760439057 0.0 0.0 98.63480047805733 0.0 0.0 0.0 0.0 0.0
1.375 1.315 0.0 -66.83613274104788 0.0 0.0 127.22322026903723 0.0 0.0 0.0 0.0 0.0 106.49789120932543 0.0 0.0 -111.3066506638821 0.0 0.0 0.0 0.0 0.0 0.0 0.0 0.0 0.0 0.0 0.0 0.0 0.0 0.0 28.365161379689546 0.0 0.0 -145.8603438926998 0.0 0.0 0.0 0.0 0.0 36.512785951564716 0.0 0.0 100.37134261254477 0.0 0.0 0.0 0.0 0.0
1.375 1.305 0.0 -67.72487875243057 0.0 0.0 128.81419516817184 0.0 0.0 0.0 0.0 0.0 108.03623565357653 0.0 0.0 -112.38692448189663 0.0 0.0 0.0 0.0 0.0 0.0 0.0 0.0 0.0 0.0 0.0 0.0 0.0 0.0 26.216468473747035 0.0 0.0 -147.7564667696129 0.0 0.0 0.0 0.0 0.0 38.31395234870633 0.0 0.0 100.5824557483824 0.0 0.0 0.0 0.0 0.0
